<svg xmlns="http://www.w3.org/2000/svg" viewBox="0 0 900 230" width="900" height="230" role="img" aria-labelledby="t d">
  <title id="t">TAEM-DEV /missions</title>
  <desc id="d">Preflight mission reports: Go / No-Go, phase by phase</desc>
  <defs>
    <pattern id="g" width="22" height="22" patternUnits="userSpaceOnUse"><path d="M22 0H0V22" fill="none" stroke="#161b22"/></pattern>
    <linearGradient id="u" x1="0" x2="1"><stop offset="0" stop-color="#3fb950"/><stop offset=".5" stop-color="#3fb950" stop-opacity=".25"/><stop offset="1" stop-color="#3fb950" stop-opacity="0"/></linearGradient>
    <radialGradient id="h" cx="10%" cy="40%" r="35%"><stop offset="0" stop-color="#3fb950" stop-opacity=".16"/><stop offset="1" stop-color="#3fb950" stop-opacity="0"/></radialGradient>
  </defs>
  <style>
    text{font-family:ui-monospace,SFMono-Regular,"SF Mono",Menlo,Consolas,"Liberation Mono",monospace}
    .pulse{animation:pulse 2.4s ease-in-out infinite}.d1{animation-delay:.4s}.d2{animation-delay:.8s}
    @keyframes pulse{0%,100%{opacity:.45}50%{opacity:1}}
    .step{animation:step 3s ease-in-out infinite}@keyframes step{0%,100%{opacity:.3}20%{opacity:1}}
    .blink{animation:blink 1s steps(1) infinite}@keyframes blink{50%{opacity:0}}
    .flash{animation:flash 3.2s ease-in-out infinite}@keyframes flash{0%,40%,100%{opacity:1}45%{opacity:.2}50%{opacity:1}55%{opacity:.3}}
    .eq{transform-box:fill-box;transform-origin:bottom;animation:eq 1.4s ease-in-out infinite}.e1{animation-delay:-.4s}.e2{animation-delay:-.8s}
    @keyframes eq{0%,100%{transform:scaleY(.35)}50%{transform:scaleY(1)}}
    .dash{animation:dash 1s linear infinite}@keyframes dash{to{stroke-dashoffset:-14}}
    .shim{animation:shim 4s ease-in-out infinite}@keyframes shim{0%,100%{opacity:.55}50%{opacity:1}}
    @media (prefers-reduced-motion:reduce){*{animation:none!important}}
  </style>
  <rect x="1" y="1" width="898" height="228" rx="16" fill="#0d1117" stroke="#30363d"/>
  <rect x="1" y="1" width="898" height="228" rx="16" fill="url(#g)"/>
  <rect x="1" y="1" width="898" height="228" rx="16" fill="url(#h)"/>
  <g transform="translate(90 98)"><path d="M0-38c14 11 20 30 17 50l-5 12H-12l-5-12c-3-20 3-39 17-50z" fill="#e6edf3"/><circle cx="0" cy="-8" r="7" fill="#3fb950"/><path d="M-12 14l-12 16 13-3zM12 14l12 16-13-3z" fill="#3fb950"/><path class="pulse" d="M-6 24h12l-3 12h-6z" fill="#f0883e"/></g>
  <line x1="170" y1="30" x2="170" y2="172" stroke="#30363d"/>
  <text x="196" y="56" font-size="15" fill="#8b949e">TAEM-DEV /</text>
  <text x="194" y="100" font-size="40" font-weight="700" fill="#e6edf3">missions</text>
  <text x="196" y="122" font-size="14" fill="#8b949e">Preflight mission reports: Go / No-Go, phase by phase</text>
  <rect class="shim" x="196" y="132" width="340" height="3" rx="1.5" fill="url(#u)"/>
  <rect x="196" y="146" width="83" height="24" rx="12" fill="#58a6ff" fill-opacity=".12" stroke="#58a6ff" stroke-opacity=".7"/><text x="237" y="162" text-anchor="middle" font-size="12" fill="#58a6ff">Missions</text><rect x="289" y="146" width="83" height="24" rx="12" fill="#3fb950" fill-opacity=".12" stroke="#3fb950" stroke-opacity=".7"/><text x="330" y="162" text-anchor="middle" font-size="12" fill="#3fb950">Go/No-Go</text><rect x="382" y="146" width="75" height="24" rx="12" fill="#e3b341" fill-opacity=".12" stroke="#e3b341" stroke-opacity=".7"/><text x="419" y="162" text-anchor="middle" font-size="12" fill="#e3b341">Reports</text>
  <line x1="1" y1="182" x2="899" y2="182" stroke="#21262d"/>
  <circle class="step" style="animation-delay:0.0s" cx="40" cy="204" r="4" fill="#3fb950"/><text x="52" y="208" font-size="12.5" fill="#8b949e">pad check</text><text x="126.19999999999999" y="208" font-size="12" fill="#484f58">→</text><circle class="step" style="animation-delay:0.6s" cx="154.2" cy="204" r="4" fill="#3fb950"/><text x="166.2" y="208" font-size="12.5" fill="#8b949e">review</text><text x="217.0" y="208" font-size="12" fill="#484f58">→</text><circle class="step" style="animation-delay:1.2s" cx="245.0" cy="204" r="4" fill="#3fb950"/><text x="257.0" y="208" font-size="12.5" fill="#8b949e">gate</text><text x="292.2" y="208" font-size="12" fill="#484f58">→</text><circle class="step" style="animation-delay:1.8s" cx="320.2" cy="204" r="4" fill="#3fb950"/><text x="332.2" y="208" font-size="12.5" fill="#8b949e">go</text>
</svg>
